<svg xmlns="http://www.w3.org/2000/svg" viewBox="0 0 30 30">
  <path d="M19 2C15.134 2 12 5.134 12 9C12 12.866 15.134 16 19 16C22.866 16 26 12.866 26 9C26 5.134 22.866 2 19 2 z M 18.001953 4L20.001953 4L20.001953 5.0039062C21.269953 5.3019063 22.097047 6.1583594 22.123047 7.3183594L20.287109 7.3183594C20.244109 6.7663594 19.719531 6.3808594 19.019531 6.3808594C18.319531 6.3808594 17.859375 6.7124219 17.859375 7.2324219C17.859375 7.6604219 18.206297 7.9083125 19.029297 8.0703125L20.037109 8.265625C21.581109 8.563625 22.275391 9.2639063 22.275391 10.503906C22.274391 11.839906 21.428 12.730672 20 13.013672L20 14L18 14L18 13.021484C16.606 12.756484 15.752562 11.917641 15.726562 10.681641L17.621094 10.681641C17.670094 11.250641 18.2395 11.613281 19.0625 11.613281C19.8045 11.613281 20.314453 11.255234 20.314453 10.740234C20.314453 10.307234 19.971125 10.075484 19.078125 9.8964844L18.050781 9.6894531C16.620781 9.4184531 15.882813 8.6391563 15.882812 7.4101562C15.882812 6.1731562 16.695953 5.2910937 18.001953 4.9960938L18.001953 4 z M 8 15 A 3 3 0 0 0 6.8828125 15.216797L2 17L2 25L6.2207031 23.166016C6.7187031 22.950016 7.2821563 22.942438 7.7851562 23.148438L16.849609 26.851562C16.849609 26.851562 16.853494 26.851563 16.853516 26.851562 A 1.5 1.5 0 0 0 17.5 27 A 1.5 1.5 0 0 0 18.238281 26.802734C18.238413 26.802691 18.244057 26.802776 18.244141 26.802734L27.230469 21.810547L27.228516 21.808594 A 1.5 1.5 0 0 0 28 20.5 A 1.5 1.5 0 0 0 26.5 19 A 1.5 1.5 0 0 0 25.863281 19.144531L25.863281 19.142578L19 22L17.5 22 A 1.5 1.5 0 0 0 19 20.5 A 1.5 1.5 0 0 0 17.964844 19.074219L17.964844 19.072266L9.2714844 15.28125L9.2597656 15.28125 A 3 3 0 0 0 8 15 z" fill="#18D26E" />
</svg>